%TF.GenerationSoftware,KiCad,Pcbnew,8.0.5*%
%TF.CreationDate,2024-09-22T19:22:41+03:00*%
%TF.ProjectId,stop_the_light_v2,73746f70-5f74-4686-955f-6c696768745f,rev?*%
%TF.SameCoordinates,Original*%
%TF.FileFunction,Soldermask,Bot*%
%TF.FilePolarity,Negative*%
%FSLAX46Y46*%
G04 Gerber Fmt 4.6, Leading zero omitted, Abs format (unit mm)*
G04 Created by KiCad (PCBNEW 8.0.5) date 2024-09-22 19:22:41*
%MOMM*%
%LPD*%
G01*
G04 APERTURE LIST*
G04 Aperture macros list*
%AMRoundRect*
0 Rectangle with rounded corners*
0 $1 Rounding radius*
0 $2 $3 $4 $5 $6 $7 $8 $9 X,Y pos of 4 corners*
0 Add a 4 corners polygon primitive as box body*
4,1,4,$2,$3,$4,$5,$6,$7,$8,$9,$2,$3,0*
0 Add four circle primitives for the rounded corners*
1,1,$1+$1,$2,$3*
1,1,$1+$1,$4,$5*
1,1,$1+$1,$6,$7*
1,1,$1+$1,$8,$9*
0 Add four rect primitives between the rounded corners*
20,1,$1+$1,$2,$3,$4,$5,0*
20,1,$1+$1,$4,$5,$6,$7,0*
20,1,$1+$1,$6,$7,$8,$9,0*
20,1,$1+$1,$8,$9,$2,$3,0*%
G04 Aperture macros list end*
%ADD10C,2.400000*%
%ADD11O,2.400000X2.400000*%
%ADD12R,1.700000X1.700000*%
%ADD13O,1.700000X1.700000*%
%ADD14R,1.600000X1.600000*%
%ADD15O,1.600000X1.600000*%
%ADD16R,2.000000X2.000000*%
%ADD17C,2.000000*%
%ADD18RoundRect,0.250001X1.099999X-1.099999X1.099999X1.099999X-1.099999X1.099999X-1.099999X-1.099999X0*%
%ADD19C,2.700000*%
G04 APERTURE END LIST*
D10*
%TO.C,R3*%
X121500000Y-112000000D03*
D11*
X136740000Y-112000000D03*
%TD*%
D12*
%TO.C,J9*%
X45500000Y-124775000D03*
D13*
X45500000Y-122235000D03*
%TD*%
D12*
%TO.C,switchA1*%
X118960000Y-126500000D03*
D13*
X121500000Y-126500000D03*
%TD*%
D14*
%TO.C,U5*%
X168540000Y-86000000D03*
D15*
X166000000Y-86000000D03*
X163460000Y-86000000D03*
X160920000Y-86000000D03*
X158380000Y-86000000D03*
X155840000Y-86000000D03*
X153300000Y-86000000D03*
X150760000Y-86000000D03*
X150760000Y-93620000D03*
X153300000Y-93620000D03*
X155840000Y-93620000D03*
X158380000Y-93620000D03*
X160920000Y-93620000D03*
X163460000Y-93620000D03*
X166000000Y-93620000D03*
X168540000Y-93620000D03*
%TD*%
D12*
%TO.C,switchB1*%
X121460000Y-137000000D03*
D13*
X118920000Y-137000000D03*
%TD*%
D10*
%TO.C,R5*%
X69880000Y-125000000D03*
D11*
X85120000Y-125000000D03*
%TD*%
D12*
%TO.C,J4*%
X167500000Y-74500000D03*
D13*
X164960000Y-74500000D03*
X162420000Y-74500000D03*
X159880000Y-74500000D03*
X157340000Y-74500000D03*
X154800000Y-74500000D03*
X152260000Y-74500000D03*
X149720000Y-74500000D03*
%TD*%
D14*
%TO.C,U1*%
X86780000Y-85380000D03*
D15*
X84240000Y-85380000D03*
X81700000Y-85380000D03*
X79160000Y-85380000D03*
X76620000Y-85380000D03*
X74080000Y-85380000D03*
X71540000Y-85380000D03*
X69000000Y-85380000D03*
X69000000Y-93000000D03*
X71540000Y-93000000D03*
X74080000Y-93000000D03*
X76620000Y-93000000D03*
X79160000Y-93000000D03*
X81700000Y-93000000D03*
X84240000Y-93000000D03*
X86780000Y-93000000D03*
%TD*%
D14*
%TO.C,U4*%
X139040000Y-85880000D03*
D15*
X136500000Y-85880000D03*
X133960000Y-85880000D03*
X131420000Y-85880000D03*
X128880000Y-85880000D03*
X126340000Y-85880000D03*
X123800000Y-85880000D03*
X121260000Y-85880000D03*
X121260000Y-93500000D03*
X123800000Y-93500000D03*
X126340000Y-93500000D03*
X128880000Y-93500000D03*
X131420000Y-93500000D03*
X133960000Y-93500000D03*
X136500000Y-93500000D03*
X139040000Y-93500000D03*
%TD*%
D14*
%TO.C,U2*%
X112900000Y-85700000D03*
D15*
X110360000Y-85700000D03*
X107820000Y-85700000D03*
X105280000Y-85700000D03*
X102740000Y-85700000D03*
X100200000Y-85700000D03*
X97660000Y-85700000D03*
X95120000Y-85700000D03*
X95120000Y-93320000D03*
X97660000Y-93320000D03*
X100200000Y-93320000D03*
X102740000Y-93320000D03*
X105280000Y-93320000D03*
X107820000Y-93320000D03*
X110360000Y-93320000D03*
X112900000Y-93320000D03*
%TD*%
D12*
%TO.C,J1*%
X87240000Y-75000000D03*
D13*
X84700000Y-75000000D03*
X82160000Y-75000000D03*
X79620000Y-75000000D03*
X77080000Y-75000000D03*
X74540000Y-75000000D03*
X72000000Y-75000000D03*
X69460000Y-75000000D03*
%TD*%
D10*
%TO.C,R6*%
X69260000Y-135500000D03*
D11*
X84500000Y-135500000D03*
%TD*%
D10*
%TO.C,R2*%
X96880000Y-112500000D03*
D11*
X112120000Y-112500000D03*
%TD*%
D12*
%TO.C,powerSocket2*%
X55000000Y-92725000D03*
D13*
X55000000Y-95265000D03*
%TD*%
D12*
%TO.C,J2*%
X112500000Y-75000000D03*
D13*
X109960000Y-75000000D03*
X107420000Y-75000000D03*
X104880000Y-75000000D03*
X102340000Y-75000000D03*
X99800000Y-75000000D03*
X97260000Y-75000000D03*
X94720000Y-75000000D03*
%TD*%
D10*
%TO.C,R4*%
X145880000Y-112500000D03*
D11*
X161120000Y-112500000D03*
%TD*%
D16*
%TO.C,BZ1*%
X145200000Y-132000000D03*
D17*
X152800000Y-132000000D03*
%TD*%
D12*
%TO.C,J7*%
X103500000Y-121880000D03*
D13*
X103500000Y-124420000D03*
X103500000Y-126960000D03*
X103500000Y-129500000D03*
X103500000Y-132040000D03*
X103500000Y-134580000D03*
X103500000Y-137120000D03*
X103500000Y-139660000D03*
%TD*%
D12*
%TO.C,J3*%
X139540000Y-75000000D03*
D13*
X137000000Y-75000000D03*
X134460000Y-75000000D03*
X131920000Y-75000000D03*
X129380000Y-75000000D03*
X126840000Y-75000000D03*
X124300000Y-75000000D03*
X121760000Y-75000000D03*
%TD*%
D10*
%TO.C,R1*%
X70260000Y-112500000D03*
D11*
X85500000Y-112500000D03*
%TD*%
D18*
%TO.C,powerSocket1*%
X47450000Y-80777500D03*
D19*
X47450000Y-75777500D03*
%TD*%
D12*
%TO.C,powerSwitch1*%
X45000000Y-92725000D03*
D13*
X45000000Y-95265000D03*
%TD*%
M02*
