%TF.GenerationSoftware,KiCad,Pcbnew,8.0.5*%
%TF.CreationDate,2024-09-22T19:22:41+03:00*%
%TF.ProjectId,stop_the_light_v2,73746f70-5f74-4686-955f-6c696768745f,rev?*%
%TF.SameCoordinates,Original*%
%TF.FileFunction,Copper,L2,Bot*%
%TF.FilePolarity,Positive*%
%FSLAX46Y46*%
G04 Gerber Fmt 4.6, Leading zero omitted, Abs format (unit mm)*
G04 Created by KiCad (PCBNEW 8.0.5) date 2024-09-22 19:22:41*
%MOMM*%
%LPD*%
G01*
G04 APERTURE LIST*
G04 Aperture macros list*
%AMRoundRect*
0 Rectangle with rounded corners*
0 $1 Rounding radius*
0 $2 $3 $4 $5 $6 $7 $8 $9 X,Y pos of 4 corners*
0 Add a 4 corners polygon primitive as box body*
4,1,4,$2,$3,$4,$5,$6,$7,$8,$9,$2,$3,0*
0 Add four circle primitives for the rounded corners*
1,1,$1+$1,$2,$3*
1,1,$1+$1,$4,$5*
1,1,$1+$1,$6,$7*
1,1,$1+$1,$8,$9*
0 Add four rect primitives between the rounded corners*
20,1,$1+$1,$2,$3,$4,$5,0*
20,1,$1+$1,$4,$5,$6,$7,0*
20,1,$1+$1,$6,$7,$8,$9,0*
20,1,$1+$1,$8,$9,$2,$3,0*%
G04 Aperture macros list end*
%TA.AperFunction,ComponentPad*%
%ADD10C,2.400000*%
%TD*%
%TA.AperFunction,ComponentPad*%
%ADD11O,2.400000X2.400000*%
%TD*%
%TA.AperFunction,ComponentPad*%
%ADD12R,1.700000X1.700000*%
%TD*%
%TA.AperFunction,ComponentPad*%
%ADD13O,1.700000X1.700000*%
%TD*%
%TA.AperFunction,ComponentPad*%
%ADD14R,1.600000X1.600000*%
%TD*%
%TA.AperFunction,ComponentPad*%
%ADD15O,1.600000X1.600000*%
%TD*%
%TA.AperFunction,ComponentPad*%
%ADD16R,2.000000X2.000000*%
%TD*%
%TA.AperFunction,ComponentPad*%
%ADD17C,2.000000*%
%TD*%
%TA.AperFunction,ComponentPad*%
%ADD18RoundRect,0.250001X1.099999X-1.099999X1.099999X1.099999X-1.099999X1.099999X-1.099999X-1.099999X0*%
%TD*%
%TA.AperFunction,ComponentPad*%
%ADD19C,2.700000*%
%TD*%
%TA.AperFunction,ViaPad*%
%ADD20C,0.600000*%
%TD*%
%TA.AperFunction,Conductor*%
%ADD21C,0.200000*%
%TD*%
G04 APERTURE END LIST*
D10*
%TO.P,R3,1*%
%TO.N,+5V*%
X121500000Y-112000000D03*
D11*
%TO.P,R3,2*%
%TO.N,Net-(U4-VCC)*%
X136740000Y-112000000D03*
%TD*%
D12*
%TO.P,J9,1,Pin_1*%
%TO.N,Net-(J7-Pin_2)*%
X45500000Y-124775000D03*
D13*
%TO.P,J9,2,Pin_2*%
%TO.N,Net-(J7-Pin_1)*%
X45500000Y-122235000D03*
%TD*%
D12*
%TO.P,switchA1,1,Pin_1*%
%TO.N,GND*%
X118960000Y-126500000D03*
D13*
%TO.P,switchA1,2,Pin_2*%
%TO.N,Net-(J7-Pin_4)*%
X121500000Y-126500000D03*
%TD*%
D14*
%TO.P,U5,1,QB*%
%TO.N,Net-(J4-Pin_2)*%
X168540000Y-86000000D03*
D15*
%TO.P,U5,2,QC*%
%TO.N,Net-(J4-Pin_3)*%
X166000000Y-86000000D03*
%TO.P,U5,3,QD*%
%TO.N,Net-(J4-Pin_4)*%
X163460000Y-86000000D03*
%TO.P,U5,4,QE*%
%TO.N,Net-(J4-Pin_5)*%
X160920000Y-86000000D03*
%TO.P,U5,5,QF*%
%TO.N,Net-(J4-Pin_6)*%
X158380000Y-86000000D03*
%TO.P,U5,6,QG*%
%TO.N,Net-(J4-Pin_7)*%
X155840000Y-86000000D03*
%TO.P,U5,7,QH*%
%TO.N,Net-(J4-Pin_8)*%
X153300000Y-86000000D03*
%TO.P,U5,8,GND*%
%TO.N,GND*%
X150760000Y-86000000D03*
%TO.P,U5,9,QH'*%
%TO.N,unconnected-(U5-QH'-Pad9)*%
X150760000Y-93620000D03*
%TO.P,U5,10,~{SRCLR}*%
%TO.N,+5V*%
X153300000Y-93620000D03*
%TO.P,U5,11,SRCLK*%
%TO.N,Net-(J7-Pin_7)*%
X155840000Y-93620000D03*
%TO.P,U5,12,RCLK*%
%TO.N,Net-(J7-Pin_6)*%
X158380000Y-93620000D03*
%TO.P,U5,13,~{OE}*%
%TO.N,GND*%
X160920000Y-93620000D03*
%TO.P,U5,14,SER*%
%TO.N,Net-(U4-QH')*%
X163460000Y-93620000D03*
%TO.P,U5,15,QA*%
%TO.N,Net-(J4-Pin_1)*%
X166000000Y-93620000D03*
%TO.P,U5,16,VCC*%
%TO.N,Net-(U5-VCC)*%
X168540000Y-93620000D03*
%TD*%
D12*
%TO.P,switchB1,1,Pin_1*%
%TO.N,Net-(J7-Pin_5)*%
X121460000Y-137000000D03*
D13*
%TO.P,switchB1,2,Pin_2*%
%TO.N,GND*%
X118920000Y-137000000D03*
%TD*%
D10*
%TO.P,R5,1*%
%TO.N,+5V*%
X69880000Y-125000000D03*
D11*
%TO.P,R5,2*%
%TO.N,Net-(J7-Pin_4)*%
X85120000Y-125000000D03*
%TD*%
D12*
%TO.P,J4,1,Pin_1*%
%TO.N,Net-(J4-Pin_1)*%
X167500000Y-74500000D03*
D13*
%TO.P,J4,2,Pin_2*%
%TO.N,Net-(J4-Pin_2)*%
X164960000Y-74500000D03*
%TO.P,J4,3,Pin_3*%
%TO.N,Net-(J4-Pin_3)*%
X162420000Y-74500000D03*
%TO.P,J4,4,Pin_4*%
%TO.N,Net-(J4-Pin_4)*%
X159880000Y-74500000D03*
%TO.P,J4,5,Pin_5*%
%TO.N,Net-(J4-Pin_5)*%
X157340000Y-74500000D03*
%TO.P,J4,6,Pin_6*%
%TO.N,Net-(J4-Pin_6)*%
X154800000Y-74500000D03*
%TO.P,J4,7,Pin_7*%
%TO.N,Net-(J4-Pin_7)*%
X152260000Y-74500000D03*
%TO.P,J4,8,Pin_8*%
%TO.N,Net-(J4-Pin_8)*%
X149720000Y-74500000D03*
%TD*%
D14*
%TO.P,U1,1,QB*%
%TO.N,Net-(J1-Pin_2)*%
X86780000Y-85380000D03*
D15*
%TO.P,U1,2,QC*%
%TO.N,Net-(J1-Pin_3)*%
X84240000Y-85380000D03*
%TO.P,U1,3,QD*%
%TO.N,Net-(J1-Pin_4)*%
X81700000Y-85380000D03*
%TO.P,U1,4,QE*%
%TO.N,Net-(J1-Pin_5)*%
X79160000Y-85380000D03*
%TO.P,U1,5,QF*%
%TO.N,Net-(J1-Pin_6)*%
X76620000Y-85380000D03*
%TO.P,U1,6,QG*%
%TO.N,Net-(J1-Pin_7)*%
X74080000Y-85380000D03*
%TO.P,U1,7,QH*%
%TO.N,Net-(J1-Pin_8)*%
X71540000Y-85380000D03*
%TO.P,U1,8,GND*%
%TO.N,GND*%
X69000000Y-85380000D03*
%TO.P,U1,9,QH'*%
%TO.N,Net-(U1-QH')*%
X69000000Y-93000000D03*
%TO.P,U1,10,~{SRCLR}*%
%TO.N,+5V*%
X71540000Y-93000000D03*
%TO.P,U1,11,SRCLK*%
%TO.N,Net-(J7-Pin_7)*%
X74080000Y-93000000D03*
%TO.P,U1,12,RCLK*%
%TO.N,Net-(J7-Pin_6)*%
X76620000Y-93000000D03*
%TO.P,U1,13,~{OE}*%
%TO.N,GND*%
X79160000Y-93000000D03*
%TO.P,U1,14,SER*%
%TO.N,Net-(J7-Pin_8)*%
X81700000Y-93000000D03*
%TO.P,U1,15,QA*%
%TO.N,Net-(J1-Pin_1)*%
X84240000Y-93000000D03*
%TO.P,U1,16,VCC*%
%TO.N,Net-(U1-VCC)*%
X86780000Y-93000000D03*
%TD*%
D14*
%TO.P,U4,1,QB*%
%TO.N,Net-(J3-Pin_2)*%
X139040000Y-85880000D03*
D15*
%TO.P,U4,2,QC*%
%TO.N,Net-(J3-Pin_3)*%
X136500000Y-85880000D03*
%TO.P,U4,3,QD*%
%TO.N,Net-(J3-Pin_4)*%
X133960000Y-85880000D03*
%TO.P,U4,4,QE*%
%TO.N,Net-(J3-Pin_5)*%
X131420000Y-85880000D03*
%TO.P,U4,5,QF*%
%TO.N,Net-(J3-Pin_6)*%
X128880000Y-85880000D03*
%TO.P,U4,6,QG*%
%TO.N,Net-(J3-Pin_7)*%
X126340000Y-85880000D03*
%TO.P,U4,7,QH*%
%TO.N,Net-(J3-Pin_8)*%
X123800000Y-85880000D03*
%TO.P,U4,8,GND*%
%TO.N,GND*%
X121260000Y-85880000D03*
%TO.P,U4,9,QH'*%
%TO.N,Net-(U4-QH')*%
X121260000Y-93500000D03*
%TO.P,U4,10,~{SRCLR}*%
%TO.N,+5V*%
X123800000Y-93500000D03*
%TO.P,U4,11,SRCLK*%
%TO.N,Net-(J7-Pin_7)*%
X126340000Y-93500000D03*
%TO.P,U4,12,RCLK*%
%TO.N,Net-(J7-Pin_6)*%
X128880000Y-93500000D03*
%TO.P,U4,13,~{OE}*%
%TO.N,GND*%
X131420000Y-93500000D03*
%TO.P,U4,14,SER*%
%TO.N,Net-(U2-QH')*%
X133960000Y-93500000D03*
%TO.P,U4,15,QA*%
%TO.N,Net-(J3-Pin_1)*%
X136500000Y-93500000D03*
%TO.P,U4,16,VCC*%
%TO.N,Net-(U4-VCC)*%
X139040000Y-93500000D03*
%TD*%
D14*
%TO.P,U2,1,QB*%
%TO.N,Net-(J2-Pin_2)*%
X112900000Y-85700000D03*
D15*
%TO.P,U2,2,QC*%
%TO.N,Net-(J2-Pin_3)*%
X110360000Y-85700000D03*
%TO.P,U2,3,QD*%
%TO.N,Net-(J2-Pin_4)*%
X107820000Y-85700000D03*
%TO.P,U2,4,QE*%
%TO.N,Net-(J2-Pin_5)*%
X105280000Y-85700000D03*
%TO.P,U2,5,QF*%
%TO.N,Net-(J2-Pin_6)*%
X102740000Y-85700000D03*
%TO.P,U2,6,QG*%
%TO.N,Net-(J2-Pin_7)*%
X100200000Y-85700000D03*
%TO.P,U2,7,QH*%
%TO.N,Net-(J2-Pin_8)*%
X97660000Y-85700000D03*
%TO.P,U2,8,GND*%
%TO.N,GND*%
X95120000Y-85700000D03*
%TO.P,U2,9,QH'*%
%TO.N,Net-(U2-QH')*%
X95120000Y-93320000D03*
%TO.P,U2,10,~{SRCLR}*%
%TO.N,+5V*%
X97660000Y-93320000D03*
%TO.P,U2,11,SRCLK*%
%TO.N,Net-(J7-Pin_7)*%
X100200000Y-93320000D03*
%TO.P,U2,12,RCLK*%
%TO.N,Net-(J7-Pin_6)*%
X102740000Y-93320000D03*
%TO.P,U2,13,~{OE}*%
%TO.N,GND*%
X105280000Y-93320000D03*
%TO.P,U2,14,SER*%
%TO.N,Net-(U1-QH')*%
X107820000Y-93320000D03*
%TO.P,U2,15,QA*%
%TO.N,Net-(J2-Pin_1)*%
X110360000Y-93320000D03*
%TO.P,U2,16,VCC*%
%TO.N,Net-(U2-VCC)*%
X112900000Y-93320000D03*
%TD*%
D12*
%TO.P,J1,1,Pin_1*%
%TO.N,Net-(J1-Pin_1)*%
X87240000Y-75000000D03*
D13*
%TO.P,J1,2,Pin_2*%
%TO.N,Net-(J1-Pin_2)*%
X84700000Y-75000000D03*
%TO.P,J1,3,Pin_3*%
%TO.N,Net-(J1-Pin_3)*%
X82160000Y-75000000D03*
%TO.P,J1,4,Pin_4*%
%TO.N,Net-(J1-Pin_4)*%
X79620000Y-75000000D03*
%TO.P,J1,5,Pin_5*%
%TO.N,Net-(J1-Pin_5)*%
X77080000Y-75000000D03*
%TO.P,J1,6,Pin_6*%
%TO.N,Net-(J1-Pin_6)*%
X74540000Y-75000000D03*
%TO.P,J1,7,Pin_7*%
%TO.N,Net-(J1-Pin_7)*%
X72000000Y-75000000D03*
%TO.P,J1,8,Pin_8*%
%TO.N,Net-(J1-Pin_8)*%
X69460000Y-75000000D03*
%TD*%
D10*
%TO.P,R6,1*%
%TO.N,+5V*%
X69260000Y-135500000D03*
D11*
%TO.P,R6,2*%
%TO.N,Net-(J7-Pin_5)*%
X84500000Y-135500000D03*
%TD*%
D10*
%TO.P,R2,1*%
%TO.N,+5V*%
X96880000Y-112500000D03*
D11*
%TO.P,R2,2*%
%TO.N,Net-(U2-VCC)*%
X112120000Y-112500000D03*
%TD*%
D12*
%TO.P,powerSocket2,1,Pin_1*%
%TO.N,GND*%
X55000000Y-92725000D03*
D13*
%TO.P,powerSocket2,2,Pin_2*%
%TO.N,+5V*%
X55000000Y-95265000D03*
%TD*%
D12*
%TO.P,J2,1,Pin_1*%
%TO.N,Net-(J2-Pin_1)*%
X112500000Y-75000000D03*
D13*
%TO.P,J2,2,Pin_2*%
%TO.N,Net-(J2-Pin_2)*%
X109960000Y-75000000D03*
%TO.P,J2,3,Pin_3*%
%TO.N,Net-(J2-Pin_3)*%
X107420000Y-75000000D03*
%TO.P,J2,4,Pin_4*%
%TO.N,Net-(J2-Pin_4)*%
X104880000Y-75000000D03*
%TO.P,J2,5,Pin_5*%
%TO.N,Net-(J2-Pin_5)*%
X102340000Y-75000000D03*
%TO.P,J2,6,Pin_6*%
%TO.N,Net-(J2-Pin_6)*%
X99800000Y-75000000D03*
%TO.P,J2,7,Pin_7*%
%TO.N,Net-(J2-Pin_7)*%
X97260000Y-75000000D03*
%TO.P,J2,8,Pin_8*%
%TO.N,Net-(J2-Pin_8)*%
X94720000Y-75000000D03*
%TD*%
D10*
%TO.P,R4,1*%
%TO.N,+5V*%
X145880000Y-112500000D03*
D11*
%TO.P,R4,2*%
%TO.N,Net-(U5-VCC)*%
X161120000Y-112500000D03*
%TD*%
D16*
%TO.P,BZ1,1,+*%
%TO.N,Net-(BZ1-+)*%
X145200000Y-132000000D03*
D17*
%TO.P,BZ1,2,-*%
%TO.N,GND*%
X152800000Y-132000000D03*
%TD*%
D12*
%TO.P,J7,1,Pin_1*%
%TO.N,Net-(J7-Pin_1)*%
X103500000Y-121880000D03*
D13*
%TO.P,J7,2,Pin_2*%
%TO.N,Net-(J7-Pin_2)*%
X103500000Y-124420000D03*
%TO.P,J7,3,Pin_3*%
%TO.N,Net-(BZ1-+)*%
X103500000Y-126960000D03*
%TO.P,J7,4,Pin_4*%
%TO.N,Net-(J7-Pin_4)*%
X103500000Y-129500000D03*
%TO.P,J7,5,Pin_5*%
%TO.N,Net-(J7-Pin_5)*%
X103500000Y-132040000D03*
%TO.P,J7,6,Pin_6*%
%TO.N,Net-(J7-Pin_6)*%
X103500000Y-134580000D03*
%TO.P,J7,7,Pin_7*%
%TO.N,Net-(J7-Pin_7)*%
X103500000Y-137120000D03*
%TO.P,J7,8,Pin_8*%
%TO.N,Net-(J7-Pin_8)*%
X103500000Y-139660000D03*
%TD*%
D12*
%TO.P,J3,1,Pin_1*%
%TO.N,Net-(J3-Pin_1)*%
X139540000Y-75000000D03*
D13*
%TO.P,J3,2,Pin_2*%
%TO.N,Net-(J3-Pin_2)*%
X137000000Y-75000000D03*
%TO.P,J3,3,Pin_3*%
%TO.N,Net-(J3-Pin_3)*%
X134460000Y-75000000D03*
%TO.P,J3,4,Pin_4*%
%TO.N,Net-(J3-Pin_4)*%
X131920000Y-75000000D03*
%TO.P,J3,5,Pin_5*%
%TO.N,Net-(J3-Pin_5)*%
X129380000Y-75000000D03*
%TO.P,J3,6,Pin_6*%
%TO.N,Net-(J3-Pin_6)*%
X126840000Y-75000000D03*
%TO.P,J3,7,Pin_7*%
%TO.N,Net-(J3-Pin_7)*%
X124300000Y-75000000D03*
%TO.P,J3,8,Pin_8*%
%TO.N,Net-(J3-Pin_8)*%
X121760000Y-75000000D03*
%TD*%
D10*
%TO.P,R1,1*%
%TO.N,+5V*%
X70260000Y-112500000D03*
D11*
%TO.P,R1,2*%
%TO.N,Net-(U1-VCC)*%
X85500000Y-112500000D03*
%TD*%
D18*
%TO.P,powerSocket1,1,Pin_1*%
%TO.N,GND*%
X47450000Y-80777500D03*
D19*
%TO.P,powerSocket1,2,Pin_2*%
%TO.N,Net-(powerSocket1-Pin_2)*%
X47450000Y-75777500D03*
%TD*%
D12*
%TO.P,powerSwitch1,1,Pin_1*%
%TO.N,Net-(powerSocket1-Pin_2)*%
X45000000Y-92725000D03*
D13*
%TO.P,powerSwitch1,2,Pin_2*%
%TO.N,+5V*%
X45000000Y-95265000D03*
%TD*%
D20*
%TO.N,Net-(U2-QH')*%
X101124400Y-91010700D03*
%TD*%
D21*
%TO.N,Net-(U2-QH')*%
X98393300Y-91010700D02*
X101124400Y-91010700D01*
X96221700Y-93182300D02*
X98393300Y-91010700D01*
X96221700Y-93320000D02*
X96221700Y-93182300D01*
X95120000Y-93320000D02*
X96221700Y-93320000D01*
%TO.N,Net-(U5-VCC)*%
X161120000Y-102141700D02*
X161120000Y-112500000D01*
X168540000Y-94721700D02*
X161120000Y-102141700D01*
X168540000Y-93620000D02*
X168540000Y-94721700D01*
%TO.N,Net-(U4-VCC)*%
X139040000Y-108198300D02*
X136740000Y-110498300D01*
X139040000Y-93500000D02*
X139040000Y-108198300D01*
X136740000Y-112000000D02*
X136740000Y-110498300D01*
%TO.N,Net-(U2-VCC)*%
X112900000Y-110218300D02*
X112120000Y-110998300D01*
X112900000Y-93320000D02*
X112900000Y-110218300D01*
X112120000Y-112500000D02*
X112120000Y-110998300D01*
%TO.N,Net-(U1-VCC)*%
X86780000Y-109718300D02*
X85500000Y-110998300D01*
X86780000Y-93000000D02*
X86780000Y-109718300D01*
X85500000Y-112500000D02*
X85500000Y-110998300D01*
%TO.N,+5V*%
X153300000Y-105080000D02*
X145880000Y-112500000D01*
X153300000Y-93620000D02*
X153300000Y-105080000D01*
X69880000Y-112880000D02*
X69880000Y-125000000D01*
X70260000Y-112500000D02*
X69880000Y-112880000D01*
X69880000Y-134880000D02*
X69880000Y-125000000D01*
X69260000Y-135500000D02*
X69880000Y-134880000D01*
X121500000Y-96901700D02*
X123800000Y-94601700D01*
X121500000Y-112000000D02*
X121500000Y-96901700D01*
X123800000Y-93500000D02*
X123800000Y-94601700D01*
X97660000Y-111720000D02*
X97660000Y-93320000D01*
X96880000Y-112500000D02*
X97660000Y-111720000D01*
%TO.N,Net-(powerSocket1-Pin_2)*%
X45000000Y-78227500D02*
X45000000Y-92725000D01*
X47450000Y-75777500D02*
X45000000Y-78227500D01*
%TO.N,Net-(J7-Pin_7)*%
X100200000Y-132956200D02*
X100200000Y-93320000D01*
X103212100Y-135968300D02*
X100200000Y-132956200D01*
X103500000Y-135968300D02*
X103212100Y-135968300D01*
X103500000Y-137120000D02*
X103500000Y-135968300D01*
%TO.N,Net-(J7-Pin_6)*%
X157278300Y-93391700D02*
X157278300Y-93620000D01*
X156283700Y-92397100D02*
X157278300Y-93391700D01*
X138560700Y-92397100D02*
X156283700Y-92397100D01*
X137770000Y-93187800D02*
X138560700Y-92397100D01*
X137770000Y-93789000D02*
X137770000Y-93187800D01*
X136938400Y-94620600D02*
X137770000Y-93789000D01*
X130000600Y-94620600D02*
X136938400Y-94620600D01*
X128880000Y-93500000D02*
X130000600Y-94620600D01*
X158380000Y-93620000D02*
X157278300Y-93620000D01*
X102348300Y-94813400D02*
X102740000Y-94421700D01*
X102348300Y-132564600D02*
X102348300Y-94813400D01*
X103212000Y-133428300D02*
X102348300Y-132564600D01*
X103500000Y-133428300D02*
X103212000Y-133428300D01*
X103500000Y-134580000D02*
X103500000Y-133428300D01*
X102740000Y-93320000D02*
X102740000Y-94421700D01*
%TO.N,Net-(J7-Pin_8)*%
X81700000Y-116996200D02*
X81700000Y-93000000D01*
X103212100Y-138508300D02*
X81700000Y-116996200D01*
X103500000Y-138508300D02*
X103212100Y-138508300D01*
X103500000Y-139660000D02*
X103500000Y-138508300D01*
%TO.N,Net-(J4-Pin_3)*%
X162420000Y-81318300D02*
X166000000Y-84898300D01*
X162420000Y-74500000D02*
X162420000Y-81318300D01*
X166000000Y-86000000D02*
X166000000Y-84898300D01*
%TO.N,Net-(J4-Pin_4)*%
X159880000Y-81318300D02*
X163460000Y-84898300D01*
X159880000Y-74500000D02*
X159880000Y-81318300D01*
X163460000Y-86000000D02*
X163460000Y-84898300D01*
%TO.N,Net-(J4-Pin_8)*%
X149720000Y-81318300D02*
X153300000Y-84898300D01*
X149720000Y-74500000D02*
X149720000Y-81318300D01*
X153300000Y-86000000D02*
X153300000Y-84898300D01*
%TO.N,Net-(J4-Pin_7)*%
X152260000Y-74500000D02*
X152260000Y-75651700D01*
X155840000Y-79231700D02*
X155840000Y-86000000D01*
X152260000Y-75651700D02*
X155840000Y-79231700D01*
%TO.N,Net-(J4-Pin_5)*%
X157340000Y-81318300D02*
X160920000Y-84898300D01*
X157340000Y-74500000D02*
X157340000Y-81318300D01*
X160920000Y-86000000D02*
X160920000Y-84898300D01*
%TO.N,Net-(J4-Pin_2)*%
X164960000Y-81318300D02*
X168540000Y-84898300D01*
X164960000Y-74500000D02*
X164960000Y-81318300D01*
X168540000Y-86000000D02*
X168540000Y-84898300D01*
%TO.N,Net-(J4-Pin_6)*%
X156840000Y-83358300D02*
X158380000Y-84898300D01*
X156840000Y-77691700D02*
X156840000Y-83358300D01*
X154800000Y-75651700D02*
X156840000Y-77691700D01*
X154800000Y-74500000D02*
X154800000Y-75651700D01*
X158380000Y-86000000D02*
X158380000Y-84898300D01*
%TO.N,Net-(J3-Pin_6)*%
X126840000Y-82738300D02*
X128880000Y-84778300D01*
X126840000Y-75000000D02*
X126840000Y-82738300D01*
X128880000Y-85880000D02*
X128880000Y-84778300D01*
%TO.N,Net-(J3-Pin_4)*%
X131920000Y-82738300D02*
X133960000Y-84778300D01*
X131920000Y-75000000D02*
X131920000Y-82738300D01*
X133960000Y-85880000D02*
X133960000Y-84778300D01*
%TO.N,Net-(J3-Pin_8)*%
X123800000Y-78191700D02*
X123800000Y-85880000D01*
X121760000Y-76151700D02*
X123800000Y-78191700D01*
X121760000Y-75000000D02*
X121760000Y-76151700D01*
%TO.N,Net-(J3-Pin_1)*%
X140141700Y-88756600D02*
X136500000Y-92398300D01*
X140141700Y-76753400D02*
X140141700Y-88756600D01*
X139540000Y-76151700D02*
X140141700Y-76753400D01*
X139540000Y-75000000D02*
X139540000Y-76151700D01*
X136500000Y-93500000D02*
X136500000Y-92398300D01*
%TO.N,Net-(J3-Pin_2)*%
X137000000Y-82738300D02*
X139040000Y-84778300D01*
X137000000Y-75000000D02*
X137000000Y-82738300D01*
X139040000Y-85880000D02*
X139040000Y-84778300D01*
%TO.N,Net-(J3-Pin_3)*%
X134460000Y-82738300D02*
X136500000Y-84778300D01*
X134460000Y-75000000D02*
X134460000Y-82738300D01*
X136500000Y-85880000D02*
X136500000Y-84778300D01*
%TO.N,Net-(J3-Pin_5)*%
X129380000Y-82738300D02*
X131420000Y-84778300D01*
X129380000Y-75000000D02*
X129380000Y-82738300D01*
X131420000Y-85880000D02*
X131420000Y-84778300D01*
%TO.N,Net-(J3-Pin_7)*%
X124300000Y-82738300D02*
X126340000Y-84778300D01*
X124300000Y-75000000D02*
X124300000Y-82738300D01*
X126340000Y-85880000D02*
X126340000Y-84778300D01*
%TO.N,Net-(J2-Pin_7)*%
X100200000Y-79091700D02*
X100200000Y-85700000D01*
X97260000Y-76151700D02*
X100200000Y-79091700D01*
X97260000Y-75000000D02*
X97260000Y-76151700D01*
%TO.N,Net-(J2-Pin_8)*%
X97660000Y-79091700D02*
X97660000Y-85700000D01*
X94720000Y-76151700D02*
X97660000Y-79091700D01*
X94720000Y-75000000D02*
X94720000Y-76151700D01*
%TO.N,Net-(J2-Pin_6)*%
X102740000Y-79091700D02*
X102740000Y-85700000D01*
X99800000Y-76151700D02*
X102740000Y-79091700D01*
X99800000Y-75000000D02*
X99800000Y-76151700D01*
%TO.N,Net-(J2-Pin_4)*%
X107820000Y-79091700D02*
X107820000Y-85700000D01*
X104880000Y-76151700D02*
X107820000Y-79091700D01*
X104880000Y-75000000D02*
X104880000Y-76151700D01*
%TO.N,Net-(J2-Pin_3)*%
X107420000Y-75000000D02*
X107420000Y-76151700D01*
X110360000Y-79091700D02*
X110360000Y-85700000D01*
X107420000Y-76151700D02*
X110360000Y-79091700D01*
%TO.N,Net-(J2-Pin_1)*%
X114001700Y-88576600D02*
X110360000Y-92218300D01*
X114001700Y-77653400D02*
X114001700Y-88576600D01*
X112500000Y-76151700D02*
X114001700Y-77653400D01*
X112500000Y-75000000D02*
X112500000Y-76151700D01*
X110360000Y-93320000D02*
X110360000Y-92218300D01*
%TO.N,Net-(J2-Pin_2)*%
X112900000Y-79091700D02*
X112900000Y-85700000D01*
X109960000Y-76151700D02*
X112900000Y-79091700D01*
X109960000Y-75000000D02*
X109960000Y-76151700D01*
%TO.N,Net-(J2-Pin_5)*%
X105280000Y-79091700D02*
X105280000Y-85700000D01*
X102340000Y-76151700D02*
X105280000Y-79091700D01*
X102340000Y-75000000D02*
X102340000Y-76151700D01*
%TO.N,Net-(J1-Pin_6)*%
X74540000Y-82198300D02*
X76620000Y-84278300D01*
X74540000Y-75000000D02*
X74540000Y-82198300D01*
X76620000Y-85380000D02*
X76620000Y-84278300D01*
%TO.N,Net-(J1-Pin_4)*%
X79620000Y-82198300D02*
X81700000Y-84278300D01*
X79620000Y-75000000D02*
X79620000Y-82198300D01*
X81700000Y-85380000D02*
X81700000Y-84278300D01*
%TO.N,Net-(J1-Pin_5)*%
X77080000Y-82198300D02*
X79160000Y-84278300D01*
X77080000Y-75000000D02*
X77080000Y-82198300D01*
X79160000Y-85380000D02*
X79160000Y-84278300D01*
%TO.N,Net-(J1-Pin_3)*%
X82160000Y-82198300D02*
X84240000Y-84278300D01*
X82160000Y-75000000D02*
X82160000Y-82198300D01*
X84240000Y-85380000D02*
X84240000Y-84278300D01*
%TO.N,Net-(J1-Pin_1)*%
X87881700Y-88256600D02*
X84240000Y-91898300D01*
X87881700Y-76793400D02*
X87881700Y-88256600D01*
X87240000Y-76151700D02*
X87881700Y-76793400D01*
X87240000Y-75000000D02*
X87240000Y-76151700D01*
X84240000Y-93000000D02*
X84240000Y-91898300D01*
%TO.N,Net-(J1-Pin_2)*%
X84700000Y-82198300D02*
X86780000Y-84278300D01*
X84700000Y-75000000D02*
X84700000Y-82198300D01*
X86780000Y-85380000D02*
X86780000Y-84278300D01*
%TO.N,Net-(J1-Pin_7)*%
X72000000Y-82198300D02*
X74080000Y-84278300D01*
X72000000Y-75000000D02*
X72000000Y-82198300D01*
X74080000Y-85380000D02*
X74080000Y-84278300D01*
%TO.N,GND*%
X69000000Y-85380000D02*
X67898300Y-85380000D01*
X55000000Y-85380000D02*
X67898300Y-85380000D01*
X52052500Y-85380000D02*
X55000000Y-85380000D01*
X47450000Y-80777500D02*
X52052500Y-85380000D01*
X55000000Y-85380000D02*
X55000000Y-92725000D01*
X95120000Y-85700000D02*
X96221700Y-85700000D01*
X122361700Y-86108300D02*
X122361700Y-85880000D01*
X128651700Y-92398300D02*
X122361700Y-86108300D01*
X129354400Y-92398300D02*
X128651700Y-92398300D01*
X130318300Y-93362200D02*
X129354400Y-92398300D01*
X130318300Y-93500000D02*
X130318300Y-93362200D01*
X131420000Y-93500000D02*
X130318300Y-93500000D01*
X121260000Y-85880000D02*
X122361700Y-85880000D01*
X70101700Y-85608300D02*
X70101700Y-85380000D01*
X76391700Y-91898300D02*
X70101700Y-85608300D01*
X77094400Y-91898300D02*
X76391700Y-91898300D01*
X78058300Y-92862200D02*
X77094400Y-91898300D01*
X78058300Y-93000000D02*
X78058300Y-92862200D01*
X79160000Y-93000000D02*
X78058300Y-93000000D01*
X69000000Y-85380000D02*
X70101700Y-85380000D01*
X151861700Y-86228300D02*
X151861700Y-86000000D01*
X158151700Y-92518300D02*
X151861700Y-86228300D01*
X158854400Y-92518300D02*
X158151700Y-92518300D01*
X159818300Y-93482200D02*
X158854400Y-92518300D01*
X159818300Y-93620000D02*
X159818300Y-93482200D01*
X160920000Y-93620000D02*
X159818300Y-93620000D01*
X150760000Y-86000000D02*
X151861700Y-86000000D01*
X105280000Y-93320000D02*
X104729200Y-93320000D01*
X104729200Y-93320000D02*
X104178300Y-93320000D01*
X118960000Y-127075800D02*
X118960000Y-127651700D01*
X118960000Y-127075800D02*
X118960000Y-126500000D01*
X118960000Y-126500000D02*
X118960000Y-125348300D01*
X110616800Y-117005100D02*
X110616800Y-94452200D01*
X118960000Y-125348300D02*
X110616800Y-117005100D01*
X105861400Y-94452200D02*
X110616800Y-94452200D01*
X104729200Y-93320000D02*
X105861400Y-94452200D01*
X118775800Y-85880000D02*
X121260000Y-85880000D01*
X111629900Y-93025900D02*
X118775800Y-85880000D01*
X111629900Y-93657700D02*
X111629900Y-93025900D01*
X110835400Y-94452200D02*
X111629900Y-93657700D01*
X110616800Y-94452200D02*
X110835400Y-94452200D01*
X96221700Y-85928300D02*
X96221700Y-85700000D01*
X100577000Y-90283600D02*
X96221700Y-85928300D01*
X101279700Y-90283600D02*
X100577000Y-90283600D01*
X104178300Y-93182200D02*
X101279700Y-90283600D01*
X104178300Y-93320000D02*
X104178300Y-93182200D01*
X118960000Y-133382800D02*
X118960000Y-127651700D01*
X118920000Y-133422800D02*
X118960000Y-133382800D01*
X118920000Y-137000000D02*
X118920000Y-133422800D01*
X151417200Y-133382800D02*
X152800000Y-132000000D01*
X118960000Y-133382800D02*
X151417200Y-133382800D01*
%TD*%
M02*
