%TF.GenerationSoftware,KiCad,Pcbnew,8.0.5*%
%TF.CreationDate,2024-09-22T19:22:41+03:00*%
%TF.ProjectId,stop_the_light_v2,73746f70-5f74-4686-955f-6c696768745f,rev?*%
%TF.SameCoordinates,Original*%
%TF.FileFunction,Copper,L1,Top*%
%TF.FilePolarity,Positive*%
%FSLAX46Y46*%
G04 Gerber Fmt 4.6, Leading zero omitted, Abs format (unit mm)*
G04 Created by KiCad (PCBNEW 8.0.5) date 2024-09-22 19:22:41*
%MOMM*%
%LPD*%
G01*
G04 APERTURE LIST*
G04 Aperture macros list*
%AMRoundRect*
0 Rectangle with rounded corners*
0 $1 Rounding radius*
0 $2 $3 $4 $5 $6 $7 $8 $9 X,Y pos of 4 corners*
0 Add a 4 corners polygon primitive as box body*
4,1,4,$2,$3,$4,$5,$6,$7,$8,$9,$2,$3,0*
0 Add four circle primitives for the rounded corners*
1,1,$1+$1,$2,$3*
1,1,$1+$1,$4,$5*
1,1,$1+$1,$6,$7*
1,1,$1+$1,$8,$9*
0 Add four rect primitives between the rounded corners*
20,1,$1+$1,$2,$3,$4,$5,0*
20,1,$1+$1,$4,$5,$6,$7,0*
20,1,$1+$1,$6,$7,$8,$9,0*
20,1,$1+$1,$8,$9,$2,$3,0*%
G04 Aperture macros list end*
%TA.AperFunction,ComponentPad*%
%ADD10C,2.400000*%
%TD*%
%TA.AperFunction,ComponentPad*%
%ADD11O,2.400000X2.400000*%
%TD*%
%TA.AperFunction,ComponentPad*%
%ADD12R,1.700000X1.700000*%
%TD*%
%TA.AperFunction,ComponentPad*%
%ADD13O,1.700000X1.700000*%
%TD*%
%TA.AperFunction,ComponentPad*%
%ADD14R,1.600000X1.600000*%
%TD*%
%TA.AperFunction,ComponentPad*%
%ADD15O,1.600000X1.600000*%
%TD*%
%TA.AperFunction,ComponentPad*%
%ADD16R,2.000000X2.000000*%
%TD*%
%TA.AperFunction,ComponentPad*%
%ADD17C,2.000000*%
%TD*%
%TA.AperFunction,ComponentPad*%
%ADD18RoundRect,0.250001X1.099999X-1.099999X1.099999X1.099999X-1.099999X1.099999X-1.099999X-1.099999X0*%
%TD*%
%TA.AperFunction,ComponentPad*%
%ADD19C,2.700000*%
%TD*%
%TA.AperFunction,ViaPad*%
%ADD20C,0.600000*%
%TD*%
%TA.AperFunction,Conductor*%
%ADD21C,0.200000*%
%TD*%
G04 APERTURE END LIST*
D10*
%TO.P,R3,1*%
%TO.N,+5V*%
X121500000Y-112000000D03*
D11*
%TO.P,R3,2*%
%TO.N,Net-(U4-VCC)*%
X136740000Y-112000000D03*
%TD*%
D12*
%TO.P,J9,1,Pin_1*%
%TO.N,Net-(J7-Pin_2)*%
X45500000Y-124775000D03*
D13*
%TO.P,J9,2,Pin_2*%
%TO.N,Net-(J7-Pin_1)*%
X45500000Y-122235000D03*
%TD*%
D12*
%TO.P,switchA1,1,Pin_1*%
%TO.N,GND*%
X118960000Y-126500000D03*
D13*
%TO.P,switchA1,2,Pin_2*%
%TO.N,Net-(J7-Pin_4)*%
X121500000Y-126500000D03*
%TD*%
D14*
%TO.P,U5,1,QB*%
%TO.N,Net-(J4-Pin_2)*%
X168540000Y-86000000D03*
D15*
%TO.P,U5,2,QC*%
%TO.N,Net-(J4-Pin_3)*%
X166000000Y-86000000D03*
%TO.P,U5,3,QD*%
%TO.N,Net-(J4-Pin_4)*%
X163460000Y-86000000D03*
%TO.P,U5,4,QE*%
%TO.N,Net-(J4-Pin_5)*%
X160920000Y-86000000D03*
%TO.P,U5,5,QF*%
%TO.N,Net-(J4-Pin_6)*%
X158380000Y-86000000D03*
%TO.P,U5,6,QG*%
%TO.N,Net-(J4-Pin_7)*%
X155840000Y-86000000D03*
%TO.P,U5,7,QH*%
%TO.N,Net-(J4-Pin_8)*%
X153300000Y-86000000D03*
%TO.P,U5,8,GND*%
%TO.N,GND*%
X150760000Y-86000000D03*
%TO.P,U5,9,QH'*%
%TO.N,unconnected-(U5-QH'-Pad9)*%
X150760000Y-93620000D03*
%TO.P,U5,10,~{SRCLR}*%
%TO.N,+5V*%
X153300000Y-93620000D03*
%TO.P,U5,11,SRCLK*%
%TO.N,Net-(J7-Pin_7)*%
X155840000Y-93620000D03*
%TO.P,U5,12,RCLK*%
%TO.N,Net-(J7-Pin_6)*%
X158380000Y-93620000D03*
%TO.P,U5,13,~{OE}*%
%TO.N,GND*%
X160920000Y-93620000D03*
%TO.P,U5,14,SER*%
%TO.N,Net-(U4-QH')*%
X163460000Y-93620000D03*
%TO.P,U5,15,QA*%
%TO.N,Net-(J4-Pin_1)*%
X166000000Y-93620000D03*
%TO.P,U5,16,VCC*%
%TO.N,Net-(U5-VCC)*%
X168540000Y-93620000D03*
%TD*%
D12*
%TO.P,switchB1,1,Pin_1*%
%TO.N,Net-(J7-Pin_5)*%
X121460000Y-137000000D03*
D13*
%TO.P,switchB1,2,Pin_2*%
%TO.N,GND*%
X118920000Y-137000000D03*
%TD*%
D10*
%TO.P,R5,1*%
%TO.N,+5V*%
X69880000Y-125000000D03*
D11*
%TO.P,R5,2*%
%TO.N,Net-(J7-Pin_4)*%
X85120000Y-125000000D03*
%TD*%
D12*
%TO.P,J4,1,Pin_1*%
%TO.N,Net-(J4-Pin_1)*%
X167500000Y-74500000D03*
D13*
%TO.P,J4,2,Pin_2*%
%TO.N,Net-(J4-Pin_2)*%
X164960000Y-74500000D03*
%TO.P,J4,3,Pin_3*%
%TO.N,Net-(J4-Pin_3)*%
X162420000Y-74500000D03*
%TO.P,J4,4,Pin_4*%
%TO.N,Net-(J4-Pin_4)*%
X159880000Y-74500000D03*
%TO.P,J4,5,Pin_5*%
%TO.N,Net-(J4-Pin_5)*%
X157340000Y-74500000D03*
%TO.P,J4,6,Pin_6*%
%TO.N,Net-(J4-Pin_6)*%
X154800000Y-74500000D03*
%TO.P,J4,7,Pin_7*%
%TO.N,Net-(J4-Pin_7)*%
X152260000Y-74500000D03*
%TO.P,J4,8,Pin_8*%
%TO.N,Net-(J4-Pin_8)*%
X149720000Y-74500000D03*
%TD*%
D14*
%TO.P,U1,1,QB*%
%TO.N,Net-(J1-Pin_2)*%
X86780000Y-85380000D03*
D15*
%TO.P,U1,2,QC*%
%TO.N,Net-(J1-Pin_3)*%
X84240000Y-85380000D03*
%TO.P,U1,3,QD*%
%TO.N,Net-(J1-Pin_4)*%
X81700000Y-85380000D03*
%TO.P,U1,4,QE*%
%TO.N,Net-(J1-Pin_5)*%
X79160000Y-85380000D03*
%TO.P,U1,5,QF*%
%TO.N,Net-(J1-Pin_6)*%
X76620000Y-85380000D03*
%TO.P,U1,6,QG*%
%TO.N,Net-(J1-Pin_7)*%
X74080000Y-85380000D03*
%TO.P,U1,7,QH*%
%TO.N,Net-(J1-Pin_8)*%
X71540000Y-85380000D03*
%TO.P,U1,8,GND*%
%TO.N,GND*%
X69000000Y-85380000D03*
%TO.P,U1,9,QH'*%
%TO.N,Net-(U1-QH')*%
X69000000Y-93000000D03*
%TO.P,U1,10,~{SRCLR}*%
%TO.N,+5V*%
X71540000Y-93000000D03*
%TO.P,U1,11,SRCLK*%
%TO.N,Net-(J7-Pin_7)*%
X74080000Y-93000000D03*
%TO.P,U1,12,RCLK*%
%TO.N,Net-(J7-Pin_6)*%
X76620000Y-93000000D03*
%TO.P,U1,13,~{OE}*%
%TO.N,GND*%
X79160000Y-93000000D03*
%TO.P,U1,14,SER*%
%TO.N,Net-(J7-Pin_8)*%
X81700000Y-93000000D03*
%TO.P,U1,15,QA*%
%TO.N,Net-(J1-Pin_1)*%
X84240000Y-93000000D03*
%TO.P,U1,16,VCC*%
%TO.N,Net-(U1-VCC)*%
X86780000Y-93000000D03*
%TD*%
D14*
%TO.P,U4,1,QB*%
%TO.N,Net-(J3-Pin_2)*%
X139040000Y-85880000D03*
D15*
%TO.P,U4,2,QC*%
%TO.N,Net-(J3-Pin_3)*%
X136500000Y-85880000D03*
%TO.P,U4,3,QD*%
%TO.N,Net-(J3-Pin_4)*%
X133960000Y-85880000D03*
%TO.P,U4,4,QE*%
%TO.N,Net-(J3-Pin_5)*%
X131420000Y-85880000D03*
%TO.P,U4,5,QF*%
%TO.N,Net-(J3-Pin_6)*%
X128880000Y-85880000D03*
%TO.P,U4,6,QG*%
%TO.N,Net-(J3-Pin_7)*%
X126340000Y-85880000D03*
%TO.P,U4,7,QH*%
%TO.N,Net-(J3-Pin_8)*%
X123800000Y-85880000D03*
%TO.P,U4,8,GND*%
%TO.N,GND*%
X121260000Y-85880000D03*
%TO.P,U4,9,QH'*%
%TO.N,Net-(U4-QH')*%
X121260000Y-93500000D03*
%TO.P,U4,10,~{SRCLR}*%
%TO.N,+5V*%
X123800000Y-93500000D03*
%TO.P,U4,11,SRCLK*%
%TO.N,Net-(J7-Pin_7)*%
X126340000Y-93500000D03*
%TO.P,U4,12,RCLK*%
%TO.N,Net-(J7-Pin_6)*%
X128880000Y-93500000D03*
%TO.P,U4,13,~{OE}*%
%TO.N,GND*%
X131420000Y-93500000D03*
%TO.P,U4,14,SER*%
%TO.N,Net-(U2-QH')*%
X133960000Y-93500000D03*
%TO.P,U4,15,QA*%
%TO.N,Net-(J3-Pin_1)*%
X136500000Y-93500000D03*
%TO.P,U4,16,VCC*%
%TO.N,Net-(U4-VCC)*%
X139040000Y-93500000D03*
%TD*%
D14*
%TO.P,U2,1,QB*%
%TO.N,Net-(J2-Pin_2)*%
X112900000Y-85700000D03*
D15*
%TO.P,U2,2,QC*%
%TO.N,Net-(J2-Pin_3)*%
X110360000Y-85700000D03*
%TO.P,U2,3,QD*%
%TO.N,Net-(J2-Pin_4)*%
X107820000Y-85700000D03*
%TO.P,U2,4,QE*%
%TO.N,Net-(J2-Pin_5)*%
X105280000Y-85700000D03*
%TO.P,U2,5,QF*%
%TO.N,Net-(J2-Pin_6)*%
X102740000Y-85700000D03*
%TO.P,U2,6,QG*%
%TO.N,Net-(J2-Pin_7)*%
X100200000Y-85700000D03*
%TO.P,U2,7,QH*%
%TO.N,Net-(J2-Pin_8)*%
X97660000Y-85700000D03*
%TO.P,U2,8,GND*%
%TO.N,GND*%
X95120000Y-85700000D03*
%TO.P,U2,9,QH'*%
%TO.N,Net-(U2-QH')*%
X95120000Y-93320000D03*
%TO.P,U2,10,~{SRCLR}*%
%TO.N,+5V*%
X97660000Y-93320000D03*
%TO.P,U2,11,SRCLK*%
%TO.N,Net-(J7-Pin_7)*%
X100200000Y-93320000D03*
%TO.P,U2,12,RCLK*%
%TO.N,Net-(J7-Pin_6)*%
X102740000Y-93320000D03*
%TO.P,U2,13,~{OE}*%
%TO.N,GND*%
X105280000Y-93320000D03*
%TO.P,U2,14,SER*%
%TO.N,Net-(U1-QH')*%
X107820000Y-93320000D03*
%TO.P,U2,15,QA*%
%TO.N,Net-(J2-Pin_1)*%
X110360000Y-93320000D03*
%TO.P,U2,16,VCC*%
%TO.N,Net-(U2-VCC)*%
X112900000Y-93320000D03*
%TD*%
D12*
%TO.P,J1,1,Pin_1*%
%TO.N,Net-(J1-Pin_1)*%
X87240000Y-75000000D03*
D13*
%TO.P,J1,2,Pin_2*%
%TO.N,Net-(J1-Pin_2)*%
X84700000Y-75000000D03*
%TO.P,J1,3,Pin_3*%
%TO.N,Net-(J1-Pin_3)*%
X82160000Y-75000000D03*
%TO.P,J1,4,Pin_4*%
%TO.N,Net-(J1-Pin_4)*%
X79620000Y-75000000D03*
%TO.P,J1,5,Pin_5*%
%TO.N,Net-(J1-Pin_5)*%
X77080000Y-75000000D03*
%TO.P,J1,6,Pin_6*%
%TO.N,Net-(J1-Pin_6)*%
X74540000Y-75000000D03*
%TO.P,J1,7,Pin_7*%
%TO.N,Net-(J1-Pin_7)*%
X72000000Y-75000000D03*
%TO.P,J1,8,Pin_8*%
%TO.N,Net-(J1-Pin_8)*%
X69460000Y-75000000D03*
%TD*%
D10*
%TO.P,R6,1*%
%TO.N,+5V*%
X69260000Y-135500000D03*
D11*
%TO.P,R6,2*%
%TO.N,Net-(J7-Pin_5)*%
X84500000Y-135500000D03*
%TD*%
D10*
%TO.P,R2,1*%
%TO.N,+5V*%
X96880000Y-112500000D03*
D11*
%TO.P,R2,2*%
%TO.N,Net-(U2-VCC)*%
X112120000Y-112500000D03*
%TD*%
D12*
%TO.P,powerSocket2,1,Pin_1*%
%TO.N,GND*%
X55000000Y-92725000D03*
D13*
%TO.P,powerSocket2,2,Pin_2*%
%TO.N,+5V*%
X55000000Y-95265000D03*
%TD*%
D12*
%TO.P,J2,1,Pin_1*%
%TO.N,Net-(J2-Pin_1)*%
X112500000Y-75000000D03*
D13*
%TO.P,J2,2,Pin_2*%
%TO.N,Net-(J2-Pin_2)*%
X109960000Y-75000000D03*
%TO.P,J2,3,Pin_3*%
%TO.N,Net-(J2-Pin_3)*%
X107420000Y-75000000D03*
%TO.P,J2,4,Pin_4*%
%TO.N,Net-(J2-Pin_4)*%
X104880000Y-75000000D03*
%TO.P,J2,5,Pin_5*%
%TO.N,Net-(J2-Pin_5)*%
X102340000Y-75000000D03*
%TO.P,J2,6,Pin_6*%
%TO.N,Net-(J2-Pin_6)*%
X99800000Y-75000000D03*
%TO.P,J2,7,Pin_7*%
%TO.N,Net-(J2-Pin_7)*%
X97260000Y-75000000D03*
%TO.P,J2,8,Pin_8*%
%TO.N,Net-(J2-Pin_8)*%
X94720000Y-75000000D03*
%TD*%
D10*
%TO.P,R4,1*%
%TO.N,+5V*%
X145880000Y-112500000D03*
D11*
%TO.P,R4,2*%
%TO.N,Net-(U5-VCC)*%
X161120000Y-112500000D03*
%TD*%
D16*
%TO.P,BZ1,1,+*%
%TO.N,Net-(BZ1-+)*%
X145200000Y-132000000D03*
D17*
%TO.P,BZ1,2,-*%
%TO.N,GND*%
X152800000Y-132000000D03*
%TD*%
D12*
%TO.P,J7,1,Pin_1*%
%TO.N,Net-(J7-Pin_1)*%
X103500000Y-121880000D03*
D13*
%TO.P,J7,2,Pin_2*%
%TO.N,Net-(J7-Pin_2)*%
X103500000Y-124420000D03*
%TO.P,J7,3,Pin_3*%
%TO.N,Net-(BZ1-+)*%
X103500000Y-126960000D03*
%TO.P,J7,4,Pin_4*%
%TO.N,Net-(J7-Pin_4)*%
X103500000Y-129500000D03*
%TO.P,J7,5,Pin_5*%
%TO.N,Net-(J7-Pin_5)*%
X103500000Y-132040000D03*
%TO.P,J7,6,Pin_6*%
%TO.N,Net-(J7-Pin_6)*%
X103500000Y-134580000D03*
%TO.P,J7,7,Pin_7*%
%TO.N,Net-(J7-Pin_7)*%
X103500000Y-137120000D03*
%TO.P,J7,8,Pin_8*%
%TO.N,Net-(J7-Pin_8)*%
X103500000Y-139660000D03*
%TD*%
D12*
%TO.P,J3,1,Pin_1*%
%TO.N,Net-(J3-Pin_1)*%
X139540000Y-75000000D03*
D13*
%TO.P,J3,2,Pin_2*%
%TO.N,Net-(J3-Pin_2)*%
X137000000Y-75000000D03*
%TO.P,J3,3,Pin_3*%
%TO.N,Net-(J3-Pin_3)*%
X134460000Y-75000000D03*
%TO.P,J3,4,Pin_4*%
%TO.N,Net-(J3-Pin_4)*%
X131920000Y-75000000D03*
%TO.P,J3,5,Pin_5*%
%TO.N,Net-(J3-Pin_5)*%
X129380000Y-75000000D03*
%TO.P,J3,6,Pin_6*%
%TO.N,Net-(J3-Pin_6)*%
X126840000Y-75000000D03*
%TO.P,J3,7,Pin_7*%
%TO.N,Net-(J3-Pin_7)*%
X124300000Y-75000000D03*
%TO.P,J3,8,Pin_8*%
%TO.N,Net-(J3-Pin_8)*%
X121760000Y-75000000D03*
%TD*%
D10*
%TO.P,R1,1*%
%TO.N,+5V*%
X70260000Y-112500000D03*
D11*
%TO.P,R1,2*%
%TO.N,Net-(U1-VCC)*%
X85500000Y-112500000D03*
%TD*%
D18*
%TO.P,powerSocket1,1,Pin_1*%
%TO.N,GND*%
X47450000Y-80777500D03*
D19*
%TO.P,powerSocket1,2,Pin_2*%
%TO.N,Net-(powerSocket1-Pin_2)*%
X47450000Y-75777500D03*
%TD*%
D12*
%TO.P,powerSwitch1,1,Pin_1*%
%TO.N,Net-(powerSocket1-Pin_2)*%
X45000000Y-92725000D03*
D13*
%TO.P,powerSwitch1,2,Pin_2*%
%TO.N,+5V*%
X45000000Y-95265000D03*
%TD*%
D20*
%TO.N,Net-(U2-QH')*%
X101124400Y-91010700D03*
%TD*%
D21*
%TO.N,Net-(J7-Pin_5)*%
X89461700Y-132040000D02*
X86001700Y-135500000D01*
X103500000Y-132040000D02*
X89461700Y-132040000D01*
X84500000Y-135500000D02*
X86001700Y-135500000D01*
X115636300Y-132040000D02*
X104651700Y-132040000D01*
X120308300Y-136712000D02*
X115636300Y-132040000D01*
X120308300Y-137000000D02*
X120308300Y-136712000D01*
X121460000Y-137000000D02*
X120308300Y-137000000D01*
X103500000Y-132040000D02*
X104651700Y-132040000D01*
%TO.N,Net-(U4-QH')*%
X121260000Y-93500000D02*
X122361700Y-93500000D01*
X163460000Y-93620000D02*
X162358300Y-93620000D01*
X162358300Y-93757700D02*
X162358300Y-93620000D01*
X160615900Y-95500100D02*
X162358300Y-93757700D01*
X124224000Y-95500100D02*
X160615900Y-95500100D01*
X122361700Y-93637800D02*
X124224000Y-95500100D01*
X122361700Y-93500000D02*
X122361700Y-93637800D01*
%TO.N,Net-(U2-QH')*%
X127964600Y-91010700D02*
X101124400Y-91010700D01*
X130150000Y-93196100D02*
X127964600Y-91010700D01*
X130150000Y-93859200D02*
X130150000Y-93196100D01*
X130925200Y-94634400D02*
X130150000Y-93859200D01*
X132825600Y-94634400D02*
X130925200Y-94634400D01*
X133960000Y-93500000D02*
X132825600Y-94634400D01*
%TO.N,Net-(U1-QH')*%
X107820000Y-93320000D02*
X106718300Y-93320000D01*
X106718300Y-93182300D02*
X106718300Y-93320000D01*
X105148400Y-91612400D02*
X106718300Y-93182300D01*
X100875300Y-91612400D02*
X105148400Y-91612400D01*
X100749900Y-91487000D02*
X100875300Y-91612400D01*
X70513000Y-91487000D02*
X100749900Y-91487000D01*
X69000000Y-93000000D02*
X70513000Y-91487000D01*
%TO.N,+5V*%
X71540000Y-93000000D02*
X70438300Y-93000000D01*
X45000000Y-95265000D02*
X55000000Y-95265000D01*
X120450800Y-110950800D02*
X121500000Y-112000000D01*
X98429200Y-110950800D02*
X120450800Y-110950800D01*
X96880000Y-112500000D02*
X98429200Y-110950800D01*
X144853600Y-113526400D02*
X145880000Y-112500000D01*
X123026400Y-113526400D02*
X144853600Y-113526400D01*
X121500000Y-112000000D02*
X123026400Y-113526400D01*
X70260000Y-112500000D02*
X71851400Y-110908600D01*
X95288600Y-110908600D02*
X96880000Y-112500000D01*
X71851400Y-110908600D02*
X95288600Y-110908600D01*
X68401600Y-107458800D02*
X71851400Y-110908600D01*
X68401600Y-95265000D02*
X68401600Y-107458800D01*
X55000000Y-95265000D02*
X68401600Y-95265000D01*
X70438300Y-93228300D02*
X70438300Y-93000000D01*
X68401600Y-95265000D02*
X70438300Y-93228300D01*
%TO.N,Net-(J7-Pin_7)*%
X100200000Y-93320000D02*
X100200000Y-94421700D01*
X74080000Y-93000000D02*
X75181700Y-93000000D01*
X155840000Y-93620000D02*
X154738300Y-93620000D01*
X126340000Y-93500000D02*
X125238300Y-93500000D01*
X76465700Y-94421700D02*
X100200000Y-94421700D01*
X75181700Y-93137700D02*
X76465700Y-94421700D01*
X75181700Y-93000000D02*
X75181700Y-93137700D01*
X125238300Y-93271700D02*
X125238300Y-93500000D01*
X124361800Y-92395200D02*
X125238300Y-93271700D01*
X120327600Y-92395200D02*
X124361800Y-92395200D01*
X117877900Y-94844900D02*
X120327600Y-92395200D01*
X100623200Y-94844900D02*
X117877900Y-94844900D01*
X100200000Y-94421700D02*
X100623200Y-94844900D01*
X154738300Y-93757700D02*
X154738300Y-93620000D01*
X153425700Y-95070300D02*
X154738300Y-93757700D01*
X127910300Y-95070300D02*
X153425700Y-95070300D01*
X126340000Y-93500000D02*
X127910300Y-95070300D01*
%TO.N,Net-(J7-Pin_6)*%
X102740000Y-93320000D02*
X101638300Y-93320000D01*
X76620000Y-93000000D02*
X77721700Y-93000000D01*
X128880000Y-93500000D02*
X127778300Y-93500000D01*
X102740000Y-93320000D02*
X103841700Y-93320000D01*
X101638300Y-93182300D02*
X101638300Y-93320000D01*
X100344700Y-91888700D02*
X101638300Y-93182300D01*
X78627500Y-91888700D02*
X100344700Y-91888700D01*
X77721700Y-92794500D02*
X78627500Y-91888700D01*
X77721700Y-93000000D02*
X77721700Y-92794500D01*
X127778300Y-93362300D02*
X127778300Y-93500000D01*
X126408200Y-91992200D02*
X127778300Y-93362300D01*
X117416600Y-91992200D02*
X126408200Y-91992200D01*
X114977100Y-94431700D02*
X117416600Y-91992200D01*
X104725100Y-94431700D02*
X114977100Y-94431700D01*
X103841700Y-93548300D02*
X104725100Y-94431700D01*
X103841700Y-93320000D02*
X103841700Y-93548300D01*
%TO.N,Net-(J7-Pin_2)*%
X101392900Y-123464600D02*
X102348300Y-124420000D01*
X47962100Y-123464600D02*
X101392900Y-123464600D01*
X46651700Y-124775000D02*
X47962100Y-123464600D01*
X45500000Y-124775000D02*
X46651700Y-124775000D01*
X103500000Y-124420000D02*
X102348300Y-124420000D01*
%TO.N,Net-(J7-Pin_1)*%
X47006700Y-121880000D02*
X46651700Y-122235000D01*
X103500000Y-121880000D02*
X47006700Y-121880000D01*
X45500000Y-122235000D02*
X46651700Y-122235000D01*
%TO.N,Net-(J7-Pin_4)*%
X91121700Y-129500000D02*
X86621700Y-125000000D01*
X103500000Y-129500000D02*
X91121700Y-129500000D01*
X85120000Y-125000000D02*
X86621700Y-125000000D01*
X118140100Y-129500000D02*
X103500000Y-129500000D01*
X120348300Y-127291800D02*
X118140100Y-129500000D01*
X120348300Y-126500000D02*
X120348300Y-127291800D01*
X121500000Y-126500000D02*
X120348300Y-126500000D01*
%TO.N,Net-(J4-Pin_1)*%
X167411600Y-91106700D02*
X166000000Y-92518300D01*
X167411600Y-75740100D02*
X167411600Y-91106700D01*
X167500000Y-75651700D02*
X167411600Y-75740100D01*
X167500000Y-74500000D02*
X167500000Y-75651700D01*
X166000000Y-93620000D02*
X166000000Y-92518300D01*
%TO.N,Net-(J1-Pin_8)*%
X69460000Y-82198300D02*
X71540000Y-84278300D01*
X69460000Y-75000000D02*
X69460000Y-82198300D01*
X71540000Y-85380000D02*
X71540000Y-84278300D01*
%TO.N,GND*%
X143260000Y-92398300D02*
X149658300Y-86000000D01*
X133485600Y-92398300D02*
X143260000Y-92398300D01*
X132521700Y-93362200D02*
X133485600Y-92398300D01*
X132521700Y-93500000D02*
X132521700Y-93362200D01*
X131420000Y-93500000D02*
X132521700Y-93500000D01*
X150760000Y-86000000D02*
X149658300Y-86000000D01*
X93236600Y-86481700D02*
X94018300Y-85700000D01*
X71065600Y-86481700D02*
X93236600Y-86481700D01*
X70101700Y-85517800D02*
X71065600Y-86481700D01*
X70101700Y-85380000D02*
X70101700Y-85517800D01*
X69000000Y-85380000D02*
X70101700Y-85380000D01*
X95120000Y-85700000D02*
X94018300Y-85700000D01*
%TO.N,Net-(BZ1-+)*%
X137243800Y-125345500D02*
X143898300Y-132000000D01*
X106266200Y-125345500D02*
X137243800Y-125345500D01*
X104651700Y-126960000D02*
X106266200Y-125345500D01*
X103500000Y-126960000D02*
X104651700Y-126960000D01*
X145200000Y-132000000D02*
X143898300Y-132000000D01*
%TD*%
M02*
