M48
; DRILL file {KiCad 8.0.5} date 2024-09-22T19:22:45+0300
; FORMAT={-:-/ absolute / inch / decimal}
; #@! TF.CreationDate,2024-09-22T19:22:45+03:00
; #@! TF.GenerationSoftware,Kicad,Pcbnew,8.0.5
; #@! TF.FileFunction,Plated,1,2,PTH
FMAT,2
INCH
; #@! TA.AperFunction,Plated,PTH,ViaDrill
T1C0.0118
; #@! TA.AperFunction,Plated,PTH,ComponentDrill
T2C0.0315
; #@! TA.AperFunction,Plated,PTH,ComponentDrill
T3C0.0394
; #@! TA.AperFunction,Plated,PTH,ComponentDrill
T4C0.0472
; #@! TA.AperFunction,Plated,PTH,ComponentDrill
T5C0.0669
%
G90
G05
T1
X3.9813Y-3.5831
T2
X2.7165Y-3.3614
X2.7165Y-3.6614
X2.8165Y-3.3614
X2.8165Y-3.6614
X2.9165Y-3.3614
X2.9165Y-3.6614
X3.0165Y-3.3614
X3.0165Y-3.6614
X3.1165Y-3.3614
X3.1165Y-3.6614
X3.2165Y-3.3614
X3.2165Y-3.6614
X3.3165Y-3.3614
X3.3165Y-3.6614
X3.4165Y-3.3614
X3.4165Y-3.6614
X3.7449Y-3.374
X3.7449Y-3.674
X3.8449Y-3.374
X3.8449Y-3.674
X3.9449Y-3.374
X3.9449Y-3.674
X4.0449Y-3.374
X4.0449Y-3.674
X4.1449Y-3.374
X4.1449Y-3.674
X4.2449Y-3.374
X4.2449Y-3.674
X4.3449Y-3.374
X4.3449Y-3.674
X4.4449Y-3.374
X4.4449Y-3.674
X4.774Y-3.3811
X4.774Y-3.6811
X4.874Y-3.3811
X4.874Y-3.6811
X4.974Y-3.3811
X4.974Y-3.6811
X5.074Y-3.3811
X5.074Y-3.6811
X5.174Y-3.3811
X5.174Y-3.6811
X5.274Y-3.3811
X5.274Y-3.6811
X5.374Y-3.3811
X5.374Y-3.6811
X5.474Y-3.3811
X5.474Y-3.6811
X5.9354Y-3.3858
X5.9354Y-3.6858
X6.0354Y-3.3858
X6.0354Y-3.6858
X6.1354Y-3.3858
X6.1354Y-3.6858
X6.2354Y-3.3858
X6.2354Y-3.6858
X6.3354Y-3.3858
X6.3354Y-3.6858
X6.4354Y-3.3858
X6.4354Y-3.6858
X6.5354Y-3.3858
X6.5354Y-3.6858
X6.6354Y-3.3858
X6.6354Y-3.6858
T3
X1.7717Y-3.6506
X1.7717Y-3.7506
X1.7913Y-4.8124
X1.7913Y-4.9124
X2.1654Y-3.6506
X2.1654Y-3.7506
X2.7346Y-2.9528
X2.8346Y-2.9528
X2.9346Y-2.9528
X3.0346Y-2.9528
X3.1346Y-2.9528
X3.2346Y-2.9528
X3.3346Y-2.9528
X3.4346Y-2.9528
X3.7291Y-2.9528
X3.8291Y-2.9528
X3.9291Y-2.9528
X4.0291Y-2.9528
X4.0748Y-4.7984
X4.0748Y-4.8984
X4.0748Y-4.9984
X4.0748Y-5.0984
X4.0748Y-5.1984
X4.0748Y-5.2984
X4.0748Y-5.3984
X4.0748Y-5.4984
X4.1291Y-2.9528
X4.2291Y-2.9528
X4.3291Y-2.9528
X4.4291Y-2.9528
X4.6819Y-5.3937
X4.6835Y-4.9803
X4.7819Y-5.3937
X4.7835Y-4.9803
X4.7937Y-2.9528
X4.8937Y-2.9528
X4.9937Y-2.9528
X5.0937Y-2.9528
X5.1937Y-2.9528
X5.2937Y-2.9528
X5.3937Y-2.9528
X5.4937Y-2.9528
X5.7165Y-5.1969
X5.8945Y-2.9331
X5.9945Y-2.9331
X6.0157Y-5.1969
X6.0945Y-2.9331
X6.1945Y-2.9331
X6.2945Y-2.9331
X6.3945Y-2.9331
X6.4945Y-2.9331
X6.5945Y-2.9331
T4
X2.7268Y-5.3346
X2.7512Y-4.9213
X2.7661Y-4.4291
X3.3268Y-5.3346
X3.3512Y-4.9213
X3.3661Y-4.4291
X3.8142Y-4.4291
X4.4142Y-4.4291
X4.7835Y-4.4094
X5.3835Y-4.4094
X5.7433Y-4.4291
X6.3433Y-4.4291
T5
X1.8681Y-2.9834
X1.8681Y-3.1802
M30
